<svg width="112" height="113" viewBox="0 0 112 113" fill="none" xmlns="http://www.w3.org/2000/svg">
<mask id="path-1-inside-1" fill="white">
<rect x="16.2461" y="9.99442" width="78.8587" height="63.6403" rx="1"/>
</mask>
<rect x="16.2461" y="9.99442" width="78.8587" height="63.6403" rx="1" fill="white" stroke="black" stroke-width="6" mask="url(#path-1-inside-1)"/>
<mask id="path-2-inside-2" fill="white">
<rect x="12.1064" y="69.4791" width="85.7761" height="22.1358" rx="1"/>
</mask>
<rect x="12.1064" y="69.4791" width="85.7761" height="22.1358" rx="1" fill="white" stroke="black" stroke-width="6" mask="url(#path-2-inside-2)"/>
<path d="M87.0494 21.9581H28.666V63.8744" stroke="black" stroke-width="2"/>
<rect x="25.5625" y="19.2921" width="60.2569" height="45.0385" rx="1" stroke="black" stroke-width="2"/>
<path d="M68.1309 80.5531H86.8079" stroke="black" stroke-width="2" stroke-linecap="round" stroke-linejoin="round"/>
<path d="M23.1709 80.5531H34.2388" stroke="black" stroke-width="2" stroke-linecap="round" stroke-linejoin="round"/>
<path d="M1.71973 104.071L15.5546 89.5444H95.7968L82.2378 103.781C82.0607 103.967 81.9619 104.214 81.9619 104.471V110.297H1.71973V104.071Z" fill="white" stroke="black" stroke-width="3" stroke-linecap="round" stroke-linejoin="round"/>
<path d="M85.4054 111.679H79.8715L81.9467 104.07L93.0146 89.5431V11.3761L16.9229 10.6844L30.066 1H102.466C104.123 1 105.466 2.34314 105.466 4V64.6403H110C110.552 64.6403 111 65.0881 111 65.6403V90.45C111 90.7514 110.864 91.0368 110.63 91.2267L85.4054 111.679Z" fill="black" stroke="black" stroke-linecap="round" stroke-linejoin="round"/>
</svg>
