<svg width="59" height="57" viewBox="0 0 59 57" fill="none" xmlns="http://www.w3.org/2000/svg">
<path d="M57 32.9353L56.9801 25.1429H51.6448C51.1367 21.997 49.9272 20.0256 48.0727 17.4341L51.8722 13.6346L44.143 7.28573L41.5767 10.5V11.769C38.9859 9.89954 37.7097 9.51933 34.5571 9.00102V3H26.8627V9.00102C23.71 9.51927 21.6368 10.7621 19.0459 12.6316L12.7143 7.28573L7.92182 12.0786L14.2634 17.4345C12.4089 20.026 11.1795 23.0116 10.6714 26.1576L2 26.1593V32.937L10.6925 32.9349C11.2166 36.0657 12.4554 39.0335 14.3127 41.6078L8.7785 46.3895L13.571 51.182L19.116 46.3895C21.6912 48.232 23.7382 49.4574 26.8627 49.9711L24.5001 51.182V55.3782H34.5571V49.9732C37.6816 49.4595 38.544 49.3904 41.1193 47.5479L44.9785 51.4071L51.873 45.4583L48.0246 41.6099C49.8819 39.0356 51.1207 36.0678 51.6448 32.937L57 32.9353Z" fill="black" stroke="black" stroke-width="3"/>
<circle cx="31.3917" cy="29.1617" r="12.7257" fill="#F6F0E1" stroke="black" stroke-width="7"/>
<path fill-rule="evenodd" clip-rule="evenodd" d="M54.6639 24.4429V31.221L49.3087 31.2227C48.7847 34.3535 47.5458 37.3213 45.6885 39.8956L49.5369 43.744L44.7444 48.5365L40.8852 44.6773C38.31 46.5198 35.3455 47.7452 32.221 48.2589V53.6639H25.4441V48.2568C22.3196 47.7431 19.3552 46.5177 16.7799 44.6752L12.9207 48.5345L8.12821 43.742L11.9767 39.8935C10.1193 37.3192 8.8805 34.3514 8.35645 31.2206L3 31.1617V24.384L8.33528 24.4433C8.84338 21.2974 10.0728 18.3117 11.9273 15.7202L8.1278 11.9207L12.9203 7.1278L16.7098 10.9173C19.3008 9.04777 22.2902 7.80498 25.4429 7.28673V2H32.221V7.28673C35.3736 7.80504 38.3629 9.04783 40.9537 10.9173L44.7432 7.1278L49.5361 11.9203L45.7366 15.7198C47.5911 18.3113 48.8205 21.2969 49.3286 24.4429H54.6639ZM28.8322 37.0579C33.9274 37.0579 38.0579 32.9274 38.0579 27.8322C38.0579 22.737 33.9274 18.6065 28.8322 18.6065C23.737 18.6065 19.6065 22.737 19.6065 27.8322C19.6065 32.9274 23.737 37.0579 28.8322 37.0579Z" fill="#F6F0E1"/>
<path d="M54.6639 31.221L54.6644 32.721L56.1639 32.7206V31.221H54.6639ZM54.6639 24.4429H56.1639V22.9429H54.6639V24.4429ZM49.3087 31.2227L49.3082 29.7227L48.0389 29.7231L47.8293 30.9751L49.3087 31.2227ZM45.6885 39.8956L44.4721 39.0179L43.725 40.0534L44.6278 40.9562L45.6885 39.8956ZM49.5369 43.744L50.5976 44.8047L51.6583 43.744L50.5976 42.6834L49.5369 43.744ZM44.7444 48.5365L43.6838 49.5972L44.7444 50.6578L45.8051 49.5972L44.7444 48.5365ZM40.8852 44.6773L41.9459 43.6166L41.0466 42.7174L40.0124 43.4574L40.8852 44.6773ZM32.221 48.2589L31.9777 46.7788L30.721 46.9854V48.2589H32.221ZM32.221 53.6639V55.1639H33.721V53.6639H32.221ZM25.4441 53.6639H23.9441V55.1639H25.4441V53.6639ZM25.4441 48.2568H26.9441V46.9833L25.6875 46.7767L25.4441 48.2568ZM16.7799 44.6752L17.6528 43.4553L16.6185 42.7153L15.7193 43.6146L16.7799 44.6752ZM12.9207 48.5345L11.8601 49.5951L12.9207 50.6558L13.9814 49.5951L12.9207 48.5345ZM8.12821 43.742L7.06755 42.6813L6.00689 43.742L7.06755 44.8026L8.12821 43.742ZM11.9767 39.8935L13.0373 40.9542L13.9402 40.0513L13.1931 39.0159L11.9767 39.8935ZM8.35645 31.2206L9.83587 30.973L9.62856 29.7345L8.37295 29.7207L8.35645 31.2206ZM3 31.1617H1.5V32.6453L2.9835 32.6616L3 31.1617ZM3 24.384L3.01668 22.8841L1.5 22.8672V24.384H3ZM8.33528 24.4433L8.3186 25.9432L9.61016 25.9576L9.8161 24.6825L8.33528 24.4433ZM11.9273 15.7202L13.1471 16.5931L13.8872 15.5588L12.9879 14.6595L11.9273 15.7202ZM8.1278 11.9207L7.06709 10.8601L6.00653 11.9208L7.06714 12.9814L8.1278 11.9207ZM12.9203 7.1278L13.981 6.06714L12.9203 5.00643L11.8596 6.06719L12.9203 7.1278ZM16.7098 10.9173L15.6492 11.978L16.5521 12.8809L17.5875 12.1337L16.7098 10.9173ZM25.4429 7.28673L25.6862 8.76687L26.9429 8.56029V7.28673H25.4429ZM25.4429 2V0.5H23.9429V2H25.4429ZM32.221 2H33.721V0.5H32.221V2ZM32.221 7.28673H30.721V8.56026L31.9777 8.76686L32.221 7.28673ZM40.9537 10.9173L40.076 12.1337L41.1114 12.8809L42.0143 11.978L40.9537 10.9173ZM44.7432 7.1278L45.8038 6.06709L44.7432 5.00652L43.6825 6.06714L44.7432 7.1278ZM49.5361 11.9203L50.5968 12.981L51.6575 11.9203L50.5967 10.8596L49.5361 11.9203ZM45.7366 15.7198L44.676 14.6591L43.7767 15.5584L44.5168 16.5927L45.7366 15.7198ZM49.3286 24.4429L47.8478 24.6821L48.0515 25.9429H49.3286V24.4429ZM56.1639 31.221V24.4429H53.1639V31.221H56.1639ZM49.3092 32.7227L54.6644 32.721L54.6634 29.721L49.3082 29.7227L49.3092 32.7227ZM46.9049 40.7732C48.8972 38.012 50.226 34.8286 50.7881 31.4703L47.8293 30.9751C47.3433 33.8784 46.1945 36.6307 44.4721 39.0179L46.9049 40.7732ZM50.5976 42.6834L46.7492 38.8349L44.6278 40.9562L48.4763 44.8047L50.5976 42.6834ZM45.8051 49.5972L50.5976 44.8047L48.4763 42.6834L43.6838 47.4759L45.8051 49.5972ZM39.8245 45.738L43.6838 49.5972L45.8051 47.4759L41.9459 43.6166L39.8245 45.738ZM32.4644 49.739C35.8159 49.188 38.9957 47.8735 41.758 45.8972L40.0124 43.4574C37.6243 45.166 34.8752 46.3024 31.9777 46.7788L32.4644 49.739ZM33.721 53.6639V48.2589H30.721V53.6639H33.721ZM25.4441 55.1639H32.221V52.1639H25.4441V55.1639ZM23.9441 48.2568V53.6639H26.9441V48.2568H23.9441ZM15.9071 45.8951C18.6694 47.8715 21.8493 49.186 25.2008 49.737L25.6875 46.7767C22.79 46.3003 20.0409 45.1639 17.6528 43.4553L15.9071 45.8951ZM13.9814 49.5951L17.8406 45.7359L15.7193 43.6146L11.8601 47.4738L13.9814 49.5951ZM7.06755 44.8026L11.8601 49.5951L13.9814 47.4738L9.18887 42.6813L7.06755 44.8026ZM10.916 38.8329L7.06755 42.6813L9.18887 44.8026L13.0373 40.9542L10.916 38.8329ZM6.87703 31.4682C7.43915 34.8265 8.76796 38.0099 10.7602 40.7712L13.1931 39.0159C11.4707 36.6286 10.3219 33.8763 9.83587 30.973L6.87703 31.4682ZM2.9835 32.6616L8.33995 32.7205L8.37295 29.7207L3.0165 29.6618L2.9835 32.6616ZM1.5 24.384V31.1617H4.5V24.384H1.5ZM8.35197 22.9434L3.01668 22.8841L2.98332 25.8839L8.3186 25.9432L8.35197 22.9434ZM10.7074 14.8473C8.71822 17.6271 7.39948 20.8296 6.85447 24.2041L9.8161 24.6825C10.2873 21.7651 11.4274 18.9964 13.1471 16.5931L10.7074 14.8473ZM7.06714 12.9814L10.8666 16.7809L12.9879 14.6595L9.18846 10.8601L7.06714 12.9814ZM11.8596 6.06719L7.06709 10.8601L9.18851 12.9813L13.981 8.18841L11.8596 6.06719ZM17.7705 9.85666L13.981 6.06714L11.8596 8.18846L15.6492 11.978L17.7705 9.85666ZM25.1996 5.8066C21.8179 6.36249 18.6113 7.69557 15.8321 9.70092L17.5875 12.1337C19.9902 10.4 22.7625 9.24747 25.6862 8.76687L25.1996 5.8066ZM23.9429 2V7.28673H26.9429V2H23.9429ZM32.221 0.5H25.4429V3.5H32.221V0.5ZM33.721 7.28673V2H30.721V7.28673H33.721ZM41.8314 9.70093C39.0524 7.69564 35.8459 6.36257 32.4644 5.8066L31.9777 8.76686C34.9012 9.24752 37.6734 10.4 40.076 12.1337L41.8314 9.70093ZM43.6825 6.06714L39.893 9.85666L42.0143 11.978L45.8039 8.18846L43.6825 6.06714ZM50.5967 10.8596L45.8038 6.06709L43.6826 8.18851L48.4755 12.981L50.5967 10.8596ZM46.7973 16.7804L50.5968 12.981L48.4755 10.8596L44.676 14.6591L46.7973 16.7804ZM50.8094 24.2037C50.2644 20.8292 48.9457 17.6267 46.9565 14.8469L44.5168 16.5927C46.2365 18.9959 47.3766 21.7647 47.8478 24.6821L50.8094 24.2037ZM54.6639 22.9429H49.3286V25.9429H54.6639V22.9429ZM36.5579 27.8322C36.5579 32.099 33.099 35.5579 28.8322 35.5579V38.5579C34.7558 38.5579 39.5579 33.7558 39.5579 27.8322H36.5579ZM28.8322 20.1065C33.099 20.1065 36.5579 23.5654 36.5579 27.8322H39.5579C39.5579 21.9086 34.7558 17.1065 28.8322 17.1065V20.1065ZM21.1065 27.8322C21.1065 23.5654 24.5654 20.1065 28.8322 20.1065V17.1065C22.9086 17.1065 18.1065 21.9086 18.1065 27.8322H21.1065ZM28.8322 35.5579C24.5654 35.5579 21.1065 32.099 21.1065 27.8322H18.1065C18.1065 33.7558 22.9086 38.5579 28.8322 38.5579V35.5579Z" fill="black"/>
</svg>
