<svg width="54" height="66" viewBox="0 0 54 66" fill="none" xmlns="http://www.w3.org/2000/svg">
<path d="M49.8367 3.86365L2.90918 62.2442L5.51781 63.7361C5.82016 63.909 6.16243 64 6.51073 64H49.591C50.6956 64 51.591 63.1046 51.591 62V7.46704C51.591 7.11924 51.5003 6.77745 51.3279 6.47541L49.8367 3.86365Z" fill="black"/>
<path d="M2.90918 62.2442L1.74006 61.3044C1.46506 61.6466 1.35371 62.092 1.43536 62.5232C1.51701 62.9545 1.78347 63.3284 2.16449 63.5463L2.90918 62.2442ZM49.8367 3.86365L51.1393 3.11992C50.8933 2.68895 50.45 2.40758 49.9553 2.36834C49.4606 2.32911 48.9785 2.53709 48.6676 2.92388L49.8367 3.86365ZM51.3279 6.47541L50.0252 7.21913V7.21913L51.3279 6.47541ZM5.51781 63.7361L6.2625 62.434L6.2625 62.434L5.51781 63.7361ZM4.0783 63.184L51.0058 4.80341L48.6676 2.92388L1.74006 61.3044L4.0783 63.184ZM48.5341 4.60737L50.0252 7.21913L52.6305 5.73168L51.1393 3.11992L48.5341 4.60737ZM50.091 7.46704V62H53.091V7.46704H50.091ZM49.591 62.5H6.51073V65.5H49.591V62.5ZM6.2625 62.434L3.65387 60.9421L2.16449 63.5463L4.77312 65.0382L6.2625 62.434ZM6.51073 62.5C6.42365 62.5 6.33809 62.4773 6.2625 62.434L4.77312 65.0382C5.30223 65.3408 5.9012 65.5 6.51073 65.5V62.5ZM50.091 62C50.091 62.2762 49.8671 62.5 49.591 62.5V65.5C51.524 65.5 53.091 63.933 53.091 62H50.091ZM50.0252 7.21913C50.0683 7.29465 50.091 7.3801 50.091 7.46704H53.091C53.091 6.85838 52.9323 6.26025 52.6305 5.73168L50.0252 7.21913Z" fill="black"/>
<path d="M16.7062 1.95459L1.9541 16.1043V60.091C1.9541 61.1955 2.84953 62.091 3.9541 62.091H47.6814C48.7859 62.091 49.6814 61.1955 49.6814 60.091V3.95459C49.6814 2.85002 48.7859 1.95459 47.6814 1.95459H16.7062Z" fill="#F6F0E1" stroke="black" stroke-width="3"/>
<rect x="10" y="26" width="33" height="3" fill="#0A0A0A"/>
<rect x="10" y="32" width="33" height="3" fill="#0A0A0A"/>
<rect x="10" y="38" width="33" height="3" fill="#0A0A0A"/>
<rect x="10" y="44" width="19" height="3" fill="#0A0A0A"/>
<path d="M1 17.2273H16.2273C16.7796 17.2273 17.2273 16.7796 17.2273 16.2273V1" stroke="black" stroke-width="2"/>
</svg>
