<svg width="67" height="61" viewBox="0 0 67 61" fill="none" xmlns="http://www.w3.org/2000/svg">
<mask id="path-1-inside-1" fill="white">
<rect x="1" y="1" width="62.8925" height="55.7048" rx="2"/>
</mask>
<rect x="1" y="1" width="62.8925" height="55.7048" rx="2" fill="#F6F0E1" stroke="black" stroke-width="6" mask="url(#path-1-inside-1)"/>
<rect x="26.0254" y="30.7067" width="25.0316" height="18.4705" rx="1" fill="#F6F0E1" stroke="black" stroke-width="2"/>
<path fill-rule="evenodd" clip-rule="evenodd" d="M50.0569 29.7067C50.8026 29.7067 51.4529 30.1147 51.7968 30.7196L25.0254 47.1403V44.1631L48.5945 29.7067H50.0569ZM27.0254 50.1772C26.3283 50.1772 25.7145 49.8205 25.3565 49.2797L52.0569 32.9026V35.245L27.7123 50.1772H27.0254ZM31.5314 50.1772H36.0419L52.0569 40.3541V37.5875L31.5314 50.1772ZM43.6784 50.1772H39.861L52.0569 42.6966V45.0381L43.6784 50.1772ZM47.4975 50.1772H50.0569C51.1615 50.1772 52.0569 49.2817 52.0569 48.1772V47.3806L47.4975 50.1772ZM44.7754 29.7067H39.92L25.0254 38.8425V41.8207L44.7754 29.7067ZM31.5904 29.7067H36.101L25.0254 36.5V33.7334L31.5904 29.7067ZM27.7714 29.7067H27.0254C26.0341 29.7067 25.2113 30.4278 25.0529 31.3741L27.7714 29.7067Z" fill="black"/>
<rect x="13.2969" y="20.6298" width="30.5451" height="23.1312" rx="2" fill="black" stroke="black" stroke-width="4"/>
<path fill-rule="evenodd" clip-rule="evenodd" d="M15.2969 20.6298C14.1923 20.6298 13.2969 21.5253 13.2969 22.6298V41.761C13.2969 42.8656 14.1923 43.761 15.2969 43.761H41.842C42.9465 43.761 43.842 42.8656 43.842 41.761V22.6298C43.842 21.5253 42.9465 20.6298 41.842 20.6298H15.2969ZM20.5337 27.3919C21.4181 27.3919 22.1351 26.675 22.1351 25.7905C22.1351 24.9061 21.4181 24.1891 20.5337 24.1891C19.6492 24.1891 18.9322 24.9061 18.9322 25.7905C18.9322 26.675 19.6492 27.3919 20.5337 27.3919ZM22.1351 32.1959C22.1351 33.0803 21.4181 33.7973 20.5337 33.7973C19.6492 33.7973 18.9322 33.0803 18.9322 32.1959C18.9322 31.3114 19.6492 30.5945 20.5337 30.5945C21.4181 30.5945 22.1351 31.3114 22.1351 32.1959ZM20.5337 40.2023C21.4181 40.2023 22.1351 39.4854 22.1351 38.6009C22.1351 37.7165 21.4181 36.9995 20.5337 36.9995C19.6492 36.9995 18.9322 37.7165 18.9322 38.6009C18.9322 39.4854 19.6492 40.2023 20.5337 40.2023ZM30.1417 25.79C30.1417 26.6744 29.4247 27.3914 28.5403 27.3914C27.6559 27.3914 26.9389 26.6744 26.9389 25.79C26.9389 24.9056 27.6559 24.1886 28.5403 24.1886C29.4247 24.1886 30.1417 24.9056 30.1417 25.79ZM28.5403 33.7973C29.4247 33.7973 30.1417 33.0803 30.1417 32.1959C30.1417 31.3114 29.4247 30.5945 28.5403 30.5945C27.6559 30.5945 26.9389 31.3114 26.9389 32.1959C26.9389 33.0803 27.6559 33.7973 28.5403 33.7973ZM30.1417 38.6009C30.1417 39.4854 29.4247 40.2023 28.5403 40.2023C27.6559 40.2023 26.9389 39.4854 26.9389 38.6009C26.9389 37.7165 27.6559 36.9995 28.5403 36.9995C29.4247 36.9995 30.1417 37.7165 30.1417 38.6009ZM36.5487 27.3914C37.4331 27.3914 38.1501 26.6744 38.1501 25.79C38.1501 24.9056 37.4331 24.1886 36.5487 24.1886C35.6642 24.1886 34.9472 24.9056 34.9472 25.79C34.9472 26.6744 35.6642 27.3914 36.5487 27.3914ZM38.1501 32.1961C38.1501 33.0805 37.4331 33.7975 36.5487 33.7975C35.6642 33.7975 34.9472 33.0805 34.9472 32.1961C34.9472 31.3117 35.6642 30.5947 36.5487 30.5947C37.4331 30.5947 38.1501 31.3117 38.1501 32.1961ZM36.5487 40.2023C37.4331 40.2023 38.1501 39.4854 38.1501 38.6009C38.1501 37.7165 37.4331 36.9995 36.5487 36.9995C35.6642 36.9995 34.9472 37.7165 34.9472 38.6009C34.9472 39.4854 35.6642 40.2023 36.5487 40.2023Z" fill="#F6F0E1"/>
<path d="M5.69956 59.3974L1.31055 55.8064L61.9569 54.9079V1.44922L65.4866 5.37109C65.8171 5.73834 66 6.21493 66 6.70901V57.8494C66 58.954 65.1046 59.8494 64 59.8494H6.96603C6.50435 59.8494 6.05688 59.6897 5.69956 59.3974Z" fill="black" stroke="black" stroke-linecap="round" stroke-linejoin="round"/>
<path d="M45.1146 6.39075H41.9207C41.8102 6.39075 41.7207 6.48029 41.7207 6.59075V9.78461C41.7207 9.89506 41.8102 9.98461 41.9207 9.98461H45.1146C45.225 9.98461 45.3146 9.89506 45.3146 9.78461V6.59075C45.3146 6.48029 45.225 6.39075 45.1146 6.39075Z" fill="black"/>
<path d="M51.4026 6.39075H48.2088C48.0983 6.39075 48.0088 6.48029 48.0088 6.59075V9.78461C48.0088 9.89506 48.0983 9.98461 48.2088 9.98461H51.4026C51.5131 9.98461 51.6026 9.89506 51.6026 9.78461V6.59075C51.6026 6.48029 51.5131 6.39075 51.4026 6.39075Z" fill="black"/>
<path d="M57.6917 6.39075H54.4979C54.3874 6.39075 54.2979 6.48029 54.2979 6.59075V9.78461C54.2979 9.89506 54.3874 9.98461 54.4979 9.98461H57.6917C57.8022 9.98461 57.8917 9.89506 57.8917 9.78461V6.59075C57.8917 6.48029 57.8022 6.39075 57.6917 6.39075Z" fill="black"/>
<path d="M3.98535 13.5784L62.3856 13.5784" stroke="black" stroke-width="2" stroke-linecap="round" stroke-linejoin="round"/>
</svg>
